<svg width="332" height="98" viewBox="0 0 332 98" fill="none" xmlns="http://www.w3.org/2000/svg">
<g filter="url(#filter0_d_33_210)">
<path d="M52.4531 60.5V77H10.5V60.5H19.5469V18.9219H10.5V2.42188H72.0469V32.5625H58.5L55.5469 18.9219H43.5469V33.0312H54V45.0312H43.5469V60.5H52.4531ZM94.5469 21.875C90.6406 21.875 87.4219 20.9531 84.8906 19.1094C82.3594 17.2656 81.0938 14.6094 81.0938 11.1406C81.0938 7.67188 82.3594 5.04688 84.8906 3.26562C87.4219 1.48438 90.6719 0.59375 94.6406 0.59375C98.6094 0.59375 101.828 1.46875 104.297 3.21875C106.797 4.96875 108.047 7.60938 108.047 11.1406C108.047 14.6094 106.766 17.2656 104.203 19.1094C101.672 20.9531 98.4531 21.875 94.5469 21.875ZM111.797 62.8906V77H77.25V62.8906H83.2969V41.2812H77.25V29.75L105.75 26.7969V62.8906H111.797ZM141.891 77.8438C129.859 77.8438 123.844 71.5781 123.844 59.0469V40.5312H116.344V26.7969H123.844V16.0625L146.297 11.0469V26.7969H155.297V40.5312H146.297V57.4062C146.297 58.8125 146.828 59.9844 147.891 60.9219C148.953 61.8594 150.281 62.3281 151.875 62.3281C153.031 62.3281 154.172 62.2344 155.297 62.0469V75.0781C151.172 76.9219 146.703 77.8438 141.891 77.8438ZM257.953 45.125V63.4531H264.469V77H235.5V45.0312C235.5 43.6875 235.062 42.5 234.188 41.4688C233.312 40.4375 232.266 39.9219 231.047 39.9219C228.766 39.9219 227.328 41.0625 226.734 43.3438C226.109 45.6875 225.797 48.9688 225.797 53.1875V77H203.297V45.0312C203.297 43.6875 202.859 42.5 201.984 41.4688C201.141 40.4375 200.109 39.9219 198.891 39.9219C196.609 39.9219 195.172 41.0625 194.578 43.3438C193.953 45.6875 193.641 48.9688 193.641 53.1875V63.4531H193.734V77H164.438V63.4531H171.234V41.2812H164.438V28.625L193.641 25.8125V32.8438C195.797 30.2812 198.25 28.4688 201 27.4062C203.75 26.3438 206.859 25.8125 210.328 25.8125C217.422 25.8125 222.062 28.8281 224.25 34.8594C226.562 31.5781 229.219 29.25 232.219 27.875C235.219 26.5 238.641 25.8125 242.484 25.8125C252.797 25.8125 257.953 32.25 257.953 45.125ZM297.141 77.8438C291.328 77.8438 286.281 76.7656 282 74.6094C277.688 72.4844 274.375 69.4375 272.062 65.4688C269.781 61.5 268.641 56.8594 268.641 51.5469C268.641 46.2969 269.766 41.7344 272.016 37.8594C274.234 34.0156 277.375 31.0469 281.438 28.9531C285.5 26.8594 290.266 25.8125 295.734 25.8125C300.766 25.8125 305.203 26.7969 309.047 28.7656C312.891 30.7656 315.859 33.5938 317.953 37.25C320.078 40.9062 321.141 45.1719 321.141 50.0469C321.141 51.7344 320.891 53.3281 320.391 54.8281H291.188C291.188 57.7656 292.297 60.125 294.516 61.9062C296.734 63.6562 299.406 64.5312 302.531 64.5312C304.906 64.5312 307.516 64.125 310.359 63.3125C313.203 62.4688 316.062 61.1719 318.938 59.4219L319.734 59.7031V72.3125C316.516 74.1562 313.203 75.5469 309.797 76.4844C306.422 77.3906 302.203 77.8438 297.141 77.8438ZM291.188 45.2188V46.5781H303.188V45.5938C303.188 43.375 302.672 41.4688 301.641 39.875C300.641 38.25 299.141 37.4375 297.141 37.4375C295.484 37.4375 294.078 38.2656 292.922 39.9219C291.766 41.5469 291.188 43.3125 291.188 45.2188Z" fill="#FFD233"/>
<path d="M52.4531 60.5H53.4531V59.5H52.4531V60.5ZM52.4531 77V78H53.4531V77H52.4531ZM10.5 77H9.5V78H10.5V77ZM10.5 60.5V59.5H9.5V60.5H10.5ZM19.5469 60.5V61.5H20.5469V60.5H19.5469ZM19.5469 18.9219H20.5469V17.9219H19.5469V18.9219ZM10.5 18.9219H9.5V19.9219H10.5V18.9219ZM10.5 2.42188V1.42188H9.5V2.42188H10.5ZM72.0469 2.42188H73.0469V1.42188H72.0469V2.42188ZM72.0469 32.5625V33.5625H73.0469V32.5625H72.0469ZM58.5 32.5625L57.5226 32.7741L57.6933 33.5625H58.5V32.5625ZM55.5469 18.9219L56.5242 18.7103L56.3535 17.9219H55.5469V18.9219ZM43.5469 18.9219V17.9219H42.5469V18.9219H43.5469ZM43.5469 33.0312H42.5469V34.0312H43.5469V33.0312ZM54 33.0312H55V32.0312H54V33.0312ZM54 45.0312V46.0312H55V45.0312H54ZM43.5469 45.0312V44.0312H42.5469V45.0312H43.5469ZM43.5469 60.5H42.5469V61.5H43.5469V60.5ZM51.4531 60.5V77H53.4531V60.5H51.4531ZM52.4531 76H10.5V78H52.4531V76ZM11.5 77V60.5H9.5V77H11.5ZM10.5 61.5H19.5469V59.5H10.5V61.5ZM20.5469 60.5V18.9219H18.5469V60.5H20.5469ZM19.5469 17.9219H10.5V19.9219H19.5469V17.9219ZM11.5 18.9219V2.42188H9.5V18.9219H11.5ZM10.5 3.42188H72.0469V1.42188H10.5V3.42188ZM71.0469 2.42188V32.5625H73.0469V2.42188H71.0469ZM72.0469 31.5625H58.5V33.5625H72.0469V31.5625ZM59.4774 32.3509L56.5242 18.7103L54.5695 19.1335L57.5226 32.7741L59.4774 32.3509ZM55.5469 17.9219H43.5469V19.9219H55.5469V17.9219ZM42.5469 18.9219V33.0312H44.5469V18.9219H42.5469ZM43.5469 34.0312H54V32.0312H43.5469V34.0312ZM53 33.0312V45.0312H55V33.0312H53ZM54 44.0312H43.5469V46.0312H54V44.0312ZM42.5469 45.0312V60.5H44.5469V45.0312H42.5469ZM43.5469 61.5H52.4531V59.5H43.5469V61.5ZM104.297 3.21875L103.719 4.03458L103.723 4.03798L104.297 3.21875ZM104.203 19.1094L103.619 18.2976L103.614 18.3011L104.203 19.1094ZM111.797 62.8906H112.797V61.8906H111.797V62.8906ZM111.797 77V78H112.797V77H111.797ZM77.25 77H76.25V78H77.25V77ZM77.25 62.8906V61.8906H76.25V62.8906H77.25ZM83.2969 62.8906V63.8906H84.2969V62.8906H83.2969ZM83.2969 41.2812H84.2969V40.2812H83.2969V41.2812ZM77.25 41.2812H76.25V42.2812H77.25V41.2812ZM77.25 29.75L77.1469 28.7553L76.25 28.8483V29.75H77.25ZM105.75 26.7969H106.75V25.6879L105.647 25.8022L105.75 26.7969ZM105.75 62.8906H104.75V63.8906H105.75V62.8906ZM94.5469 20.875C90.7992 20.875 87.8012 19.9923 85.4794 18.3011L84.3019 19.9177C87.0425 21.914 90.482 22.875 94.5469 22.875V20.875ZM85.4794 18.3011C83.2372 16.6678 82.0938 14.3296 82.0938 11.1406H80.0938C80.0938 14.8892 81.4816 17.8634 84.3019 19.9177L85.4794 18.3011ZM82.0938 11.1406C82.0938 7.95169 83.2363 5.65259 85.4661 4.08343L84.3151 2.44782C81.4825 4.44116 80.0938 7.39206 80.0938 11.1406H82.0938ZM85.4661 4.08343C87.7869 2.45029 90.8198 1.59375 94.6406 1.59375V-0.40625C90.5239 -0.40625 87.0568 0.518463 84.3151 2.44782L85.4661 4.08343ZM94.6406 1.59375C98.4662 1.59375 101.465 2.43676 103.719 4.03457L104.875 2.40293C102.192 0.500744 98.7525 -0.40625 94.6406 -0.40625V1.59375ZM103.723 4.03798C105.911 5.56937 107.047 7.87663 107.047 11.1406H109.047C109.047 7.34212 107.683 4.36813 104.87 2.39952L103.723 4.03798ZM107.047 11.1406C107.047 14.3246 105.892 16.6624 103.619 18.2977L104.787 19.9211C107.639 17.8688 109.047 14.8941 109.047 11.1406H107.047ZM103.614 18.3011C101.293 19.9923 98.2945 20.875 94.5469 20.875V22.875C98.6117 22.875 102.051 21.914 104.792 19.9177L103.614 18.3011ZM110.797 62.8906V77H112.797V62.8906H110.797ZM111.797 76H77.25V78H111.797V76ZM78.25 77V62.8906H76.25V77H78.25ZM77.25 63.8906H83.2969V61.8906H77.25V63.8906ZM84.2969 62.8906V41.2812H82.2969V62.8906H84.2969ZM83.2969 40.2812H77.25V42.2812H83.2969V40.2812ZM78.25 41.2812V29.75H76.25V41.2812H78.25ZM77.3531 30.7447L105.853 27.7915L105.647 25.8022L77.1469 28.7553L77.3531 30.7447ZM104.75 26.7969V62.8906H106.75V26.7969H104.75ZM105.75 63.8906H111.797V61.8906H105.75V63.8906ZM123.844 40.5312H124.844V39.5312H123.844V40.5312ZM116.344 40.5312H115.344V41.5312H116.344V40.5312ZM116.344 26.7969V25.7969H115.344V26.7969H116.344ZM123.844 26.7969V27.7969H124.844V26.7969H123.844ZM123.844 16.0625L123.626 15.0866L122.844 15.2612V16.0625H123.844ZM146.297 11.0469H147.297V9.79885L146.079 10.0709L146.297 11.0469ZM146.297 26.7969H145.297V27.7969H146.297V26.7969ZM155.297 26.7969H156.297V25.7969H155.297V26.7969ZM155.297 40.5312V41.5312H156.297V40.5312H155.297ZM146.297 40.5312V39.5312H145.297V40.5312H146.297ZM155.297 62.0469H156.297V60.8664L155.132 61.0605L155.297 62.0469ZM155.297 75.0781L155.705 75.9911L156.297 75.7265V75.0781H155.297ZM141.891 76.8438C136.04 76.8438 131.833 75.3224 129.077 72.452C126.314 69.574 124.844 65.1683 124.844 59.0469H122.844C122.844 65.4567 124.382 70.4495 127.634 73.8371C130.894 77.2323 135.71 78.8438 141.891 78.8438V76.8438ZM124.844 59.0469V40.5312H122.844V59.0469H124.844ZM123.844 39.5312H116.344V41.5312H123.844V39.5312ZM117.344 40.5312V26.7969H115.344V40.5312H117.344ZM116.344 27.7969H123.844V25.7969H116.344V27.7969ZM124.844 26.7969V16.0625H122.844V26.7969H124.844ZM124.062 17.0384L146.515 12.0228L146.079 10.0709L123.626 15.0866L124.062 17.0384ZM145.297 11.0469V26.7969H147.297V11.0469H145.297ZM146.297 27.7969H155.297V25.7969H146.297V27.7969ZM154.297 26.7969V40.5312H156.297V26.7969H154.297ZM155.297 39.5312H146.297V41.5312H155.297V39.5312ZM145.297 40.5312V57.4062H147.297V40.5312H145.297ZM145.297 57.4062C145.297 59.1019 145.953 60.546 147.229 61.6717L148.552 60.172C147.703 59.4227 147.297 58.5231 147.297 57.4062H145.297ZM147.229 61.6717C148.497 62.7907 150.07 63.3281 151.875 63.3281V61.3281C150.492 61.3281 149.409 60.928 148.552 60.172L147.229 61.6717ZM151.875 63.3281C153.086 63.3281 154.281 63.2299 155.461 63.0333L155.132 61.0605C154.063 61.2388 152.977 61.3281 151.875 61.3281V63.3281ZM154.297 62.0469V75.0781H156.297V62.0469H154.297ZM154.889 74.1652C150.9 75.9479 146.572 76.8438 141.891 76.8438V78.8438C146.834 78.8438 151.443 77.8959 155.705 75.9911L154.889 74.1652ZM257.953 63.4531H256.953V64.4531H257.953V63.4531ZM264.469 63.4531H265.469V62.4531H264.469V63.4531ZM264.469 77V78H265.469V77H264.469ZM235.5 77H234.5V78H235.5V77ZM226.734 43.3438L227.701 43.6014L227.702 43.5956L226.734 43.3438ZM225.797 77V78H226.797V77H225.797ZM203.297 77H202.297V78H203.297V77ZM201.984 41.4688L201.21 42.102L201.216 42.1089L201.222 42.1157L201.984 41.4688ZM194.578 43.3438L195.544 43.6014L195.546 43.5956L194.578 43.3438ZM193.641 63.4531H192.641V64.4531H193.641V63.4531ZM193.734 63.4531H194.734V62.4531H193.734V63.4531ZM193.734 77V78H194.734V77H193.734ZM164.438 77H163.438V78H164.438V77ZM164.438 63.4531V62.4531H163.438V63.4531H164.438ZM171.234 63.4531V64.4531H172.234V63.4531H171.234ZM171.234 41.2812H172.234V40.2812H171.234V41.2812ZM164.438 41.2812H163.438V42.2812H164.438V41.2812ZM164.438 28.625L164.342 27.6296L163.438 27.7167V28.625H164.438ZM193.641 25.8125H194.641V24.7116L193.545 24.8171L193.641 25.8125ZM193.641 32.8438H192.641V35.5853L194.406 33.4876L193.641 32.8438ZM224.25 34.8594L223.31 35.2003L223.963 37.002L225.067 35.4354L224.25 34.8594ZM256.953 45.125V63.4531H258.953V45.125H256.953ZM257.953 64.4531H264.469V62.4531H257.953V64.4531ZM263.469 63.4531V77H265.469V63.4531H263.469ZM264.469 76H235.5V78H264.469V76ZM236.5 77V45.0312H234.5V77H236.5ZM236.5 45.0312C236.5 43.4488 235.977 42.0324 234.95 40.8218L233.425 42.1157C234.148 42.9676 234.5 43.9262 234.5 45.0312H236.5ZM234.95 40.8218C233.908 39.5943 232.594 38.9219 231.047 38.9219V40.9219C231.938 40.9219 232.717 41.2807 233.425 42.1157L234.95 40.8218ZM231.047 38.9219C229.737 38.9219 228.571 39.252 227.636 39.994C226.704 40.7333 226.103 41.8014 225.767 43.0919L227.702 43.5956C227.96 42.6049 228.374 41.962 228.879 41.5607C229.382 41.162 230.076 40.9219 231.047 40.9219V38.9219ZM225.768 43.0861C225.11 45.5536 224.797 48.9357 224.797 53.1875H226.797C226.797 49.0018 227.109 45.8214 227.701 43.6014L225.768 43.0861ZM224.797 53.1875V77H226.797V53.1875H224.797ZM225.797 76H203.297V78H225.797V76ZM204.297 77V45.0312H202.297V77H204.297ZM204.297 45.0312C204.297 43.4488 203.774 42.0324 202.747 40.8218L201.222 42.1157C201.945 42.9676 202.297 43.9262 202.297 45.0312H204.297ZM202.758 40.8355C201.745 39.5968 200.44 38.9219 198.891 38.9219V40.9219C199.779 40.9219 200.536 41.2782 201.21 42.102L202.758 40.8355ZM198.891 38.9219C197.58 38.9219 196.415 39.252 195.48 39.994C194.548 40.7333 193.946 41.8014 193.61 43.0919L195.546 43.5956C195.804 42.6049 196.217 41.962 196.723 41.5607C197.226 41.162 197.92 40.9219 198.891 40.9219V38.9219ZM193.612 43.0861C192.954 45.5536 192.641 48.9357 192.641 53.1875H194.641C194.641 49.0018 194.952 45.8214 195.544 43.6014L193.612 43.0861ZM192.641 53.1875V63.4531H194.641V53.1875H192.641ZM193.641 64.4531H193.734V62.4531H193.641V64.4531ZM192.734 63.4531V77H194.734V63.4531H192.734ZM193.734 76H164.438V78H193.734V76ZM165.438 77V63.4531H163.438V77H165.438ZM164.438 64.4531H171.234V62.4531H164.438V64.4531ZM172.234 63.4531V41.2812H170.234V63.4531H172.234ZM171.234 40.2812H164.438V42.2812H171.234V40.2812ZM165.438 41.2812V28.625H163.438V41.2812H165.438ZM164.533 29.6204L193.736 26.8079L193.545 24.8171L164.342 27.6296L164.533 29.6204ZM192.641 25.8125V32.8438H194.641V25.8125H192.641ZM194.406 33.4876C196.469 31.0362 198.788 29.333 201.36 28.3391L200.64 26.4734C197.712 27.6045 195.125 29.5263 192.875 32.1999L194.406 33.4876ZM201.36 28.3391C203.977 27.3281 206.961 26.8125 210.328 26.8125V24.8125C206.757 24.8125 203.523 25.3594 200.64 26.4734L201.36 28.3391ZM210.328 26.8125C213.736 26.8125 216.466 27.5363 218.584 28.9127C220.694 30.2838 222.278 32.3553 223.31 35.2003L225.19 34.5184C224.034 31.3322 222.204 28.8802 219.674 27.2357C217.151 25.5965 214.014 24.8125 210.328 24.8125V26.8125ZM225.067 35.4354C227.3 32.2675 229.828 30.071 232.635 28.7841L231.802 26.9659C228.61 28.429 225.825 30.8888 223.433 34.2833L225.067 35.4354ZM232.635 28.7841C235.485 27.4781 238.761 26.8125 242.484 26.8125V24.8125C238.52 24.8125 234.953 25.5219 231.802 26.9659L232.635 28.7841ZM242.484 26.8125C247.42 26.8125 250.964 28.3421 253.305 31.2658C255.681 34.2318 256.953 38.7946 256.953 45.125H258.953C258.953 38.5804 257.647 33.4869 254.866 30.0155C252.052 26.5016 247.861 24.8125 242.484 24.8125V26.8125ZM282 74.6094L282.45 73.7162L282.442 73.7124L282 74.6094ZM272.062 65.4688L271.195 65.9671L271.198 65.9722L272.062 65.4688ZM272.016 37.8594L272.88 38.3615L272.882 38.3593L272.016 37.8594ZM309.047 28.7656L309.508 27.8785L309.503 27.8756L309.047 28.7656ZM317.953 37.25L317.085 37.7469L317.089 37.7525L317.953 37.25ZM320.391 54.8281V55.8281H321.111L321.339 55.1444L320.391 54.8281ZM291.188 54.8281V53.8281H290.188V54.8281H291.188ZM294.516 61.9062L293.89 62.6861L293.896 62.6914L294.516 61.9062ZM310.359 63.3125L310.634 64.2741L310.644 64.2712L310.359 63.3125ZM318.938 59.4219L319.27 58.4789L318.823 58.321L318.418 58.5677L318.938 59.4219ZM319.734 59.7031H320.734V58.9956L320.067 58.7601L319.734 59.7031ZM319.734 72.3125L320.231 73.1802L320.734 72.8921V72.3125H319.734ZM309.797 76.4844L310.056 77.4502L310.062 77.4485L309.797 76.4844ZM291.188 46.5781H290.188V47.5781H291.188V46.5781ZM303.188 46.5781V47.5781H304.188V46.5781H303.188ZM301.641 39.875L300.789 40.3991L300.795 40.4087L300.801 40.4183L301.641 39.875ZM292.922 39.9219L293.737 40.5017L293.742 40.4943L292.922 39.9219ZM297.141 76.8438C291.452 76.8438 286.565 75.7888 282.45 73.7163L281.55 75.5025C285.998 77.7424 291.205 78.8438 297.141 78.8438V76.8438ZM282.442 73.7124C278.297 71.67 275.135 68.7561 272.927 64.9653L271.198 65.9722C273.615 70.1189 277.078 73.2988 281.558 75.5064L282.442 73.7124ZM272.929 64.9704C270.749 61.1761 269.641 56.7129 269.641 51.5469H267.641C267.641 57.0059 268.814 61.8239 271.196 65.9671L272.929 64.9704ZM269.641 51.5469C269.641 46.4427 270.733 42.0596 272.88 38.3615L271.151 37.3572C268.798 41.4092 267.641 46.151 267.641 51.5469H269.641ZM272.882 38.3593C275.002 34.6868 277.998 31.8507 281.896 29.842L280.979 28.0642C276.752 30.2431 273.467 33.3445 271.15 37.3595L272.882 38.3593ZM281.896 29.842C285.791 27.8343 290.394 26.8125 295.734 26.8125V24.8125C290.137 24.8125 285.209 25.8844 280.979 28.0642L281.896 29.842ZM295.734 26.8125C300.633 26.8125 304.91 27.7702 308.591 29.6557L309.503 27.8756C305.496 25.8235 300.898 24.8125 295.734 24.8125V26.8125ZM308.585 29.6527C312.264 31.5669 315.09 34.2619 317.085 37.7469L318.821 36.7531C316.629 32.9256 313.517 29.9643 309.508 27.8785L308.585 29.6527ZM317.089 37.7525C319.112 41.2341 320.141 45.321 320.141 50.0469H322.141C322.141 45.0227 321.044 40.5784 318.818 36.7475L317.089 37.7525ZM320.141 50.0469C320.141 51.6341 319.906 53.1205 319.442 54.5119L321.339 55.1444C321.876 53.5357 322.141 51.8346 322.141 50.0469H320.141ZM320.391 53.8281H291.188V55.8281H320.391V53.8281ZM290.188 54.8281C290.188 58.0574 291.426 60.708 293.89 62.686L295.142 61.1265C293.168 59.542 292.188 57.4738 292.188 54.8281H290.188ZM293.896 62.6914C296.31 64.5954 299.207 65.5312 302.531 65.5312V63.5312C299.606 63.5312 297.158 62.7171 295.135 61.1211L293.896 62.6914ZM302.531 65.5312C305.019 65.5312 307.722 65.1061 310.634 64.274L310.085 62.351C307.309 63.1439 304.794 63.5312 302.531 63.5312V65.5312ZM310.644 64.2712C313.58 63.3999 316.518 62.065 319.457 60.2761L318.418 58.5677C315.607 60.2787 312.826 61.5376 310.075 62.3538L310.644 64.2712ZM318.605 60.3649L319.402 60.6461L320.067 58.7601L319.27 58.4789L318.605 60.3649ZM318.734 59.7031V72.3125H320.734V59.7031H318.734ZM319.237 71.4448C316.088 73.2489 312.853 74.6061 309.532 75.5202L310.062 77.4485C313.553 76.4877 316.943 75.0636 320.231 73.1802L319.237 71.4448ZM309.538 75.5186C306.276 76.3945 302.151 76.8438 297.141 76.8438V78.8438C302.255 78.8438 306.568 78.3868 310.056 77.4502L309.538 75.5186ZM290.188 45.2188V46.5781H292.188V45.2188H290.188ZM291.188 47.5781H303.188V45.5781H291.188V47.5781ZM304.188 46.5781V45.5938H302.188V46.5781H304.188ZM304.188 45.5938C304.188 43.2154 303.633 41.1131 302.48 39.3317L300.801 40.4183C301.711 41.8244 302.188 43.5346 302.188 45.5938H304.188ZM302.492 39.3509C301.3 37.4133 299.468 36.4375 297.141 36.4375V38.4375C298.814 38.4375 299.981 39.0867 300.789 40.3991L302.492 39.3509ZM297.141 36.4375C295.084 36.4375 293.399 37.4919 292.102 39.3494L293.742 40.4943C294.758 39.0393 295.885 38.4375 297.141 38.4375V36.4375ZM292.107 39.3421C290.836 41.1281 290.188 43.0947 290.188 45.2188H292.188C292.188 43.5303 292.695 41.9656 293.737 40.5016L292.107 39.3421Z" fill="#FFD233"/>
</g>
<defs>
<filter id="filter0_d_33_210" x="0.5" y="0.59375" width="330.641" height="97.25" filterUnits="userSpaceOnUse" color-interpolation-filters="sRGB">
<feFlood flood-opacity="0" result="BackgroundImageFix"/>
<feColorMatrix in="SourceAlpha" type="matrix" values="0 0 0 0 0 0 0 0 0 0 0 0 0 0 0 0 0 0 127 0" result="hardAlpha"/>
<feOffset dy="10"/>
<feGaussianBlur stdDeviation="5"/>
<feComposite in2="hardAlpha" operator="out"/>
<feColorMatrix type="matrix" values="0 0 0 0 0 0 0 0 0 0 0 0 0 0 0 0 0 0 0.25 0"/>
<feBlend mode="normal" in2="BackgroundImageFix" result="effect1_dropShadow_33_210"/>
<feBlend mode="normal" in="SourceGraphic" in2="effect1_dropShadow_33_210" result="shape"/>
</filter>
</defs>
</svg>
